<?xml version="1.0" encoding="utf-8"?>
<!-- Generator: Adobe Illustrator 19.2.1, SVG Export Plug-In . SVG Version: 6.00 Build 0)  -->
<svg version="1.1" id="Layer_1" xmlns="http://www.w3.org/2000/svg" xmlns:xlink="http://www.w3.org/1999/xlink" x="0px" y="0px"
	 viewBox="0 0 160 160" enable-background="new 0 0 160 160" xml:space="preserve">
<rect fill="#E4E4E4" width="160" height="160"/>
<g>
	<defs>
		<rect id="SVGID_1_" width="160" height="160"/>
	</defs>
	<clipPath id="SVGID_2_">
		<use xlink:href="#SVGID_1_"  overflow="visible"/>
	</clipPath>
	<path clip-path="url(#SVGID_2_)" fill="#FFFFFF" d="M106.653,53.347c0-14.714-11.938-26.652-26.653-26.652
		c-14.714,0-26.652,11.938-26.652,26.652S65.286,80,80,80C94.715,80,106.653,68.061,106.653,53.347 M128.863,115.328
		c0-15.686-3.679-39.77-24.015-39.77c-2.152,0-11.244,9.647-24.848,9.647s-22.696-9.647-24.848-9.647
		c-20.336,0-24.015,24.084-24.015,39.77c0,11.244,7.496,17.977,18.532,17.977h60.662
		C121.367,133.305,128.863,126.572,128.863,115.328"/>
</g>
</svg>
